<svg xmlns="http://www.w3.org/2000/svg" width="24" height="24" viewBox="0 0 24 24">
    <path d="M7 10c1.657 0 3-1.343 3-3S8.657 4 7 4 4 5.343 4 7s1.343 3 3 3zm10 10c1.657 0 3-1.343 3-3s-1.343-3-3-3-3 1.343-3 3 1.343 3 3 3zM7 8c.552 0 1-.448 1-1s-.448-1-1-1-1 .448-1 1 .448 1 1 1zm10 10c.552 0 1-.448 1-1s-.448-1-1-1-1 .448-1 1 .448 1 1 1zM7 20c-1.657 0-3-1.343-3-3s1.343-3 3-3 3 1.343 3 3-1.343 3-3 3zm10-10c-1.657 0-3-1.343-3-3s1.343-3 3-3 3 1.343 3 3-1.343 3-3 3z" fill="none" fill-rule="evenodd" stroke="currentColor" stroke-width="2"/>
</svg>
